  0
SECTION
  2
HEADER
  9
$ANGBASE
  50
0.0
  9
$ANGDIR
  70
  1
  9
$MEASUREMENT
  70
0
  0
ENDSEC
  0
SECTION
  2
TABLES
  0
TABLE
  2
LTYPE
  70
1
  0
LTYPE
  2
CONTINUOUS
  70
0
  3
Solid line
  72
65
  73
0
  40
0.0
  0
ENDTAB
  0
TABLE
  2
STYLE
  70
4
  0
STYLE
  2
KICAD
  70
0
  40
0
  41
1
  42
1
  50
0
  71
0
  3
isocp.shx
  0
STYLE
  2
KICADB
  70
0
  40
0
  41
1
  42
1
  50
0
  71
0
  3
isocp.shx
  0
STYLE
  2
KICADI
  70
0
  40
0
  41
1
  42
1
  50
15
  71
0
  3
isocp.shx
  0
STYLE
  2
KICADBI
  70
0
  40
0
  41
1
  42
1
  50
15
  71
0
  3
isocp.shx
  0
ENDTAB
  0
TABLE
  2
LAYER
  70
30
  0
LAYER
  2
BLACK
  70
0
  62
7
  6
CONTINUOUS
  0
LAYER
  2
GRAY1
  70
0
  62
251
  6
CONTINUOUS
  0
LAYER
  2
GRAY2
  70
0
  62
8
  6
CONTINUOUS
  0
LAYER
  2
GRAY3
  70
0
  62
9
  6
CONTINUOUS
  0
LAYER
  2
WHITE
  70
0
  62
7
  6
CONTINUOUS
  0
LAYER
  2
LYELLOW
  70
0
  62
51
  6
CONTINUOUS
  0
LAYER
  2
BLUE1
  70
0
  62
178
  6
CONTINUOUS
  0
LAYER
  2
GREEN1
  70
0
  62
98
  6
CONTINUOUS
  0
LAYER
  2
CYAN1
  70
0
  62
138
  6
CONTINUOUS
  0
LAYER
  2
RED1
  70
0
  62
18
  6
CONTINUOUS
  0
LAYER
  2
MAGENTA1
  70
0
  62
228
  6
CONTINUOUS
  0
LAYER
  2
BROWN1
  70
0
  62
58
  6
CONTINUOUS
  0
LAYER
  2
BLUE2
  70
0
  62
5
  6
CONTINUOUS
  0
LAYER
  2
GREEN2
  70
0
  62
3
  6
CONTINUOUS
  0
LAYER
  2
CYAN2
  70
0
  62
4
  6
CONTINUOUS
  0
LAYER
  2
RED2
  70
0
  62
1
  6
CONTINUOUS
  0
LAYER
  2
MAGENTA2
  70
0
  62
6
  6
CONTINUOUS
  0
LAYER
  2
BROWN2
  70
0
  62
54
  6
CONTINUOUS
  0
LAYER
  2
BLUE3
  70
0
  62
171
  6
CONTINUOUS
  0
LAYER
  2
GREEN3
  70
0
  62
91
  6
CONTINUOUS
  0
LAYER
  2
CYAN3
  70
0
  62
131
  6
CONTINUOUS
  0
LAYER
  2
RED3
  70
0
  62
11
  6
CONTINUOUS
  0
LAYER
  2
MAGENTA3
  70
0
  62
221
  6
CONTINUOUS
  0
LAYER
  2
YELLOW3
  70
0
  62
2
  6
CONTINUOUS
  0
LAYER
  2
BLUE4
  70
0
  62
5
  6
CONTINUOUS
  0
LAYER
  2
GREEN4
  70
0
  62
3
  6
CONTINUOUS
  0
LAYER
  2
CYAN4
  70
0
  62
4
  6
CONTINUOUS
  0
LAYER
  2
RED4
  70
0
  62
1
  6
CONTINUOUS
  0
LAYER
  2
MAGENTA4
  70
0
  62
6
  6
CONTINUOUS
  0
LAYER
  2
YELLOW4
  70
0
  62
2
  6
CONTINUOUS
  0
ENDTAB
  0
ENDSEC
  0
SECTION
  2
ENTITIES
0
LINE
8
Black
10
144.95
20
-93.7
11
143.25
21
-93.7
0
LINE
8
Black
10
143.25
20
-93.7
11
143.25
21
-92.7
0
LINE
8
Black
10
143.25
20
-92.7
11
144.95
21
-92.7
0
LINE
8
Black
10
144.95
20
-92.7
11
144.95
21
-93.7
0
LINE
8
Black
10
163.12
20
-92.8
11
161.98
21
-92.8
0
LINE
8
Black
10
161.98
20
-92.8
11
161.98
21
-91.6
0
LINE
8
Black
10
161.98
20
-91.6
11
163.12
21
-91.6
0
LINE
8
Black
10
163.12
20
-91.6
11
163.12
21
-92.8
0
LINE
8
Black
10
161.22
20
-92.8
11
160.08
21
-92.8
0
LINE
8
Black
10
160.08
20
-92.8
11
160.08
21
-91.6
0
LINE
8
Black
10
160.08
20
-91.6
11
161.22
21
-91.6
0
LINE
8
Black
10
161.22
20
-91.6
11
161.22
21
-92.8
0
LINE
8
Black
10
151.15
20
-92.55
11
149.45
21
-92.55
0
LINE
8
Black
10
149.45
20
-92.55
11
149.45
21
-89.25
0
LINE
8
Black
10
149.45
20
-89.25
11
151.15
21
-89.25
0
LINE
8
Black
10
151.15
20
-89.25
11
151.15
21
-92.55
0
LINE
8
Black
10
153.7
20
-92.27
11
152.5
21
-92.27
0
LINE
8
Black
10
152.5
20
-92.27
11
152.5
21
-91.13
0
LINE
8
Black
10
152.5
20
-91.13
11
153.7
21
-91.13
0
LINE
8
Black
10
153.7
20
-91.13
11
153.7
21
-92.27
0
LINE
8
Black
10
155.7
20
-92.27
11
154.5
21
-92.27
0
LINE
8
Black
10
154.5
20
-92.27
11
154.5
21
-91.13
0
LINE
8
Black
10
154.5
20
-91.13
11
155.7
21
-91.13
0
LINE
8
Black
10
155.7
20
-91.13
11
155.7
21
-92.27
0
LINE
8
Black
10
157.7
20
-92.27
11
156.5
21
-92.27
0
LINE
8
Black
10
156.5
20
-92.27
11
156.5
21
-91.13
0
LINE
8
Black
10
156.5
20
-91.13
11
157.7
21
-91.13
0
LINE
8
Black
10
157.7
20
-91.13
11
157.7
21
-92.27
0
LINE
8
Black
10
142.1
20
-92.22
11
140.9
21
-92.22
0
LINE
8
Black
10
140.9
20
-92.22
11
140.9
21
-91.08
0
LINE
8
Black
10
140.9
20
-91.08
11
142.1
21
-91.08
0
LINE
8
Black
10
142.1
20
-91.08
11
142.1
21
-92.22
0
LINE
8
Black
10
140.1
20
-92.22
11
138.9
21
-92.22
0
LINE
8
Black
10
138.9
20
-92.22
11
138.9
21
-91.08
0
LINE
8
Black
10
138.9
20
-91.08
11
140.1
21
-91.08
0
LINE
8
Black
10
140.1
20
-91.08
11
140.1
21
-92.22
0
LINE
8
Black
10
144.95
20
-91.4
11
143.25
21
-91.4
0
LINE
8
Black
10
143.25
20
-91.4
11
143.25
21
-90.4
0
LINE
8
Black
10
143.25
20
-90.4
11
144.95
21
-90.4
0
LINE
8
Black
10
144.95
20
-90.4
11
144.95
21
-91.4
0
LINE
8
Black
10
153.7
20
-90.37
11
152.5
21
-90.37
0
LINE
8
Black
10
152.5
20
-90.37
11
152.5
21
-89.23
0
LINE
8
Black
10
152.5
20
-89.23
11
153.7
21
-89.23
0
LINE
8
Black
10
153.7
20
-89.23
11
153.7
21
-90.37
0
LINE
8
Black
10
155.7
20
-90.37
11
154.5
21
-90.37
0
LINE
8
Black
10
154.5
20
-90.37
11
154.5
21
-89.23
0
LINE
8
Black
10
154.5
20
-89.23
11
155.7
21
-89.23
0
LINE
8
Black
10
155.7
20
-89.23
11
155.7
21
-90.37
0
LINE
8
Black
10
157.7
20
-90.37
11
156.5
21
-90.37
0
LINE
8
Black
10
156.5
20
-90.37
11
156.5
21
-89.23
0
LINE
8
Black
10
156.5
20
-89.23
11
157.7
21
-89.23
0
LINE
8
Black
10
157.7
20
-89.23
11
157.7
21
-90.37
0
LINE
8
Black
10
142.1
20
-90.32
11
140.9
21
-90.32
0
LINE
8
Black
10
140.9
20
-90.32
11
140.9
21
-89.18
0
LINE
8
Black
10
140.9
20
-89.18
11
142.1
21
-89.18
0
LINE
8
Black
10
142.1
20
-89.18
11
142.1
21
-90.32
0
LINE
8
Black
10
140.1
20
-90.32
11
138.9
21
-90.32
0
LINE
8
Black
10
138.9
20
-90.32
11
138.9
21
-89.18
0
LINE
8
Black
10
138.9
20
-89.18
11
140.1
21
-89.18
0
LINE
8
Black
10
140.1
20
-89.18
11
140.1
21
-90.32
0
LINE
8
Black
10
144.95
20
-89.1
11
143.25
21
-89.1
0
LINE
8
Black
10
143.25
20
-89.1
11
143.25
21
-88.1
0
LINE
8
Black
10
143.25
20
-88.1
11
144.95
21
-88.1
0
LINE
8
Black
10
144.95
20
-88.1
11
144.95
21
-89.1
0
LINE
8
Black
10
166.225
20
-87
11
165.175
21
-87
0
LINE
8
Black
10
165.175
20
-87
11
165.175
21
-84.8
0
LINE
8
Black
10
165.175
20
-84.8
11
166.225
21
-84.8
0
LINE
8
Black
10
166.225
20
-84.8
11
166.225
21
-87
0
LINE
8
Black
10
169.225
20
-87
11
168.175
21
-87
0
LINE
8
Black
10
168.175
20
-87
11
168.175
21
-84.8
0
LINE
8
Black
10
168.175
20
-84.8
11
169.225
21
-84.8
0
LINE
8
Black
10
169.225
20
-84.8
11
169.225
21
-87
0
LINE
8
Black
10
162.67
20
-86
11
161.53
21
-86
0
LINE
8
Black
10
161.53
20
-86
11
161.53
21
-84.8
0
LINE
8
Black
10
161.53
20
-84.8
11
162.67
21
-84.8
0
LINE
8
Black
10
162.67
20
-84.8
11
162.67
21
-86
0
LINE
8
Black
10
160.77
20
-86
11
159.63
21
-86
0
LINE
8
Black
10
159.63
20
-86
11
159.63
21
-84.8
0
LINE
8
Black
10
159.63
20
-84.8
11
160.77
21
-84.8
0
LINE
8
Black
10
160.77
20
-84.8
11
160.77
21
-86
0
LINE
8
Black
10
156.82
20
-86
11
155.68
21
-86
0
LINE
8
Black
10
155.68
20
-86
11
155.68
21
-84.8
0
LINE
8
Black
10
155.68
20
-84.8
11
156.82
21
-84.8
0
LINE
8
Black
10
156.82
20
-84.8
11
156.82
21
-86
0
LINE
8
Black
10
158.72
20
-86
11
157.58
21
-86
0
LINE
8
Black
10
157.58
20
-86
11
157.58
21
-84.8
0
LINE
8
Black
10
157.58
20
-84.8
11
158.72
21
-84.8
0
LINE
8
Black
10
158.72
20
-84.8
11
158.72
21
-86
0
LINE
8
Black
10
145.57
20
-85.6
11
144.43
21
-85.6
0
LINE
8
Black
10
144.43
20
-85.6
11
144.43
21
-84.4
0
LINE
8
Black
10
144.43
20
-84.4
11
145.57
21
-84.4
0
LINE
8
Black
10
145.57
20
-84.4
11
145.57
21
-85.6
0
LINE
8
Black
10
147.47
20
-85.6
11
146.33
21
-85.6
0
LINE
8
Black
10
146.33
20
-85.6
11
146.33
21
-84.4
0
LINE
8
Black
10
146.33
20
-84.4
11
147.47
21
-84.4
0
LINE
8
Black
10
147.47
20
-84.4
11
147.47
21
-85.6
0
LINE
8
Black
10
167.7
20
-84.9
11
166.7
21
-84.9
0
LINE
8
Black
10
166.7
20
-84.9
11
166.7
21
-83.8
0
LINE
8
Black
10
166.7
20
-83.8
11
167.7
21
-83.8
0
LINE
8
Black
10
167.7
20
-83.8
11
167.7
21
-84.9
0
LINE
8
Black
10
145.025
20
-83.2
11
144.775
21
-83.2
0
LINE
8
Black
10
144.775
20
-83.2
11
144.775
21
-82.2
0
LINE
8
Black
10
144.775
20
-82.2
11
145.025
21
-82.2
0
LINE
8
Black
10
145.025
20
-82.2
11
145.025
21
-83.2
0
LINE
8
Black
10
149.025
20
-83.2
11
148.775
21
-83.2
0
LINE
8
Black
10
148.775
20
-83.2
11
148.775
21
-82.2
0
LINE
8
Black
10
148.775
20
-82.2
11
149.025
21
-82.2
0
LINE
8
Black
10
149.025
20
-82.2
11
149.025
21
-83.2
0
LINE
8
Black
10
148.525
20
-83.2
11
148.275
21
-83.2
0
LINE
8
Black
10
148.275
20
-83.2
11
148.275
21
-82.2
0
LINE
8
Black
10
148.275
20
-82.2
11
148.525
21
-82.2
0
LINE
8
Black
10
148.525
20
-82.2
11
148.525
21
-83.2
0
LINE
8
Black
10
143.525
20
-83.2
11
143.275
21
-83.2
0
LINE
8
Black
10
143.275
20
-83.2
11
143.275
21
-82.2
0
LINE
8
Black
10
143.275
20
-82.2
11
143.525
21
-82.2
0
LINE
8
Black
10
143.525
20
-82.2
11
143.525
21
-83.2
0
LINE
8
Black
10
144.025
20
-83.2
11
143.775
21
-83.2
0
LINE
8
Black
10
143.775
20
-83.2
11
143.775
21
-82.2
0
LINE
8
Black
10
143.775
20
-82.2
11
144.025
21
-82.2
0
LINE
8
Black
10
144.025
20
-82.2
11
144.025
21
-83.2
0
LINE
8
Black
10
144.525
20
-83.2
11
144.275
21
-83.2
0
LINE
8
Black
10
144.275
20
-83.2
11
144.275
21
-82.2
0
LINE
8
Black
10
144.275
20
-82.2
11
144.525
21
-82.2
0
LINE
8
Black
10
144.525
20
-82.2
11
144.525
21
-83.2
0
LINE
8
Black
10
147.525
20
-83.2
11
147.275
21
-83.2
0
LINE
8
Black
10
147.275
20
-83.2
11
147.275
21
-82.2
0
LINE
8
Black
10
147.275
20
-82.2
11
147.525
21
-82.2
0
LINE
8
Black
10
147.525
20
-82.2
11
147.525
21
-83.2
0
LINE
8
Black
10
145.525
20
-83.2
11
145.275
21
-83.2
0
LINE
8
Black
10
145.275
20
-83.2
11
145.275
21
-82.2
0
LINE
8
Black
10
145.275
20
-82.2
11
145.525
21
-82.2
0
LINE
8
Black
10
145.525
20
-82.2
11
145.525
21
-83.2
0
LINE
8
Black
10
146.025
20
-83.2
11
145.775
21
-83.2
0
LINE
8
Black
10
145.775
20
-83.2
11
145.775
21
-82.2
0
LINE
8
Black
10
145.775
20
-82.2
11
146.025
21
-82.2
0
LINE
8
Black
10
146.025
20
-82.2
11
146.025
21
-83.2
0
LINE
8
Black
10
148.025
20
-83.2
11
147.775
21
-83.2
0
LINE
8
Black
10
147.775
20
-83.2
11
147.775
21
-82.2
0
LINE
8
Black
10
147.775
20
-82.2
11
148.025
21
-82.2
0
LINE
8
Black
10
148.025
20
-82.2
11
148.025
21
-83.2
0
LINE
8
Black
10
146.525
20
-83.2
11
146.275
21
-83.2
0
LINE
8
Black
10
146.275
20
-83.2
11
146.275
21
-82.2
0
LINE
8
Black
10
146.275
20
-82.2
11
146.525
21
-82.2
0
LINE
8
Black
10
146.525
20
-82.2
11
146.525
21
-83.2
0
LINE
8
Black
10
147.025
20
-83.2
11
146.775
21
-83.2
0
LINE
8
Black
10
146.775
20
-83.2
11
146.775
21
-82.2
0
LINE
8
Black
10
146.775
20
-82.2
11
147.025
21
-82.2
0
LINE
8
Black
10
147.025
20
-82.2
11
147.025
21
-83.2
0
LINE
8
Black
10
165.55
20
-82.85
11
163.55
21
-82.85
0
LINE
8
Black
10
163.55
20
-82.85
11
163.55
21
-82.15
0
LINE
8
Black
10
163.55
20
-82.15
11
165.55
21
-82.15
0
LINE
8
Black
10
165.55
20
-82.15
11
165.55
21
-82.85
0
LINE
8
Black
10
155.85
20
-82.85
11
153.85
21
-82.85
0
LINE
8
Black
10
153.85
20
-82.85
11
153.85
21
-82.15
0
LINE
8
Black
10
153.85
20
-82.15
11
155.85
21
-82.15
0
LINE
8
Black
10
155.85
20
-82.15
11
155.85
21
-82.85
0
LINE
8
Black
10
167.8
20
-81.97
11
166.6
21
-81.97
0
LINE
8
Black
10
166.6
20
-81.97
11
166.6
21
-80.83
0
LINE
8
Black
10
166.6
20
-80.83
11
167.8
21
-80.83
0
LINE
8
Black
10
167.8
20
-80.83
11
167.8
21
-81.97
0
LINE
8
Black
10
155.85
20
-81.8
11
153.85
21
-81.8
0
LINE
8
Black
10
153.85
20
-81.8
11
153.85
21
-81
0
LINE
8
Black
10
153.85
20
-81
11
155.85
21
-81
0
LINE
8
Black
10
155.85
20
-81
11
155.85
21
-81.8
0
LINE
8
Black
10
165.55
20
-81.8
11
163.55
21
-81.8
0
LINE
8
Black
10
163.55
20
-81.8
11
163.55
21
-81
0
LINE
8
Black
10
163.55
20
-81
11
165.55
21
-81
0
LINE
8
Black
10
165.55
20
-81
11
165.55
21
-81.8
0
LINE
8
Black
10
142.4
20
-81.325
11
141.4
21
-81.325
0
LINE
8
Black
10
141.4
20
-81.325
11
141.4
21
-81.075
0
LINE
8
Black
10
141.4
20
-81.075
11
142.4
21
-81.075
0
LINE
8
Black
10
142.4
20
-81.075
11
142.4
21
-81.325
0
LINE
8
Black
10
150.9
20
-81.325
11
149.9
21
-81.325
0
LINE
8
Black
10
149.9
20
-81.325
11
149.9
21
-81.075
0
LINE
8
Black
10
149.9
20
-81.075
11
150.9
21
-81.075
0
LINE
8
Black
10
150.9
20
-81.075
11
150.9
21
-81.325
0
LINE
8
Black
10
150.9
20
-80.825
11
149.9
21
-80.825
0
LINE
8
Black
10
149.9
20
-80.825
11
149.9
21
-80.575
0
LINE
8
Black
10
149.9
20
-80.575
11
150.9
21
-80.575
0
LINE
8
Black
10
150.9
20
-80.575
11
150.9
21
-80.825
0
LINE
8
Black
10
142.4
20
-80.825
11
141.4
21
-80.825
0
LINE
8
Black
10
141.4
20
-80.825
11
141.4
21
-80.575
0
LINE
8
Black
10
141.4
20
-80.575
11
142.4
21
-80.575
0
LINE
8
Black
10
142.4
20
-80.575
11
142.4
21
-80.825
0
LINE
8
Black
10
165.55
20
-80.7
11
163.55
21
-80.7
0
LINE
8
Black
10
163.55
20
-80.7
11
163.55
21
-79.9
0
LINE
8
Black
10
163.55
20
-79.9
11
165.55
21
-79.9
0
LINE
8
Black
10
165.55
20
-79.9
11
165.55
21
-80.7
0
LINE
8
Black
10
155.85
20
-80.7
11
153.85
21
-80.7
0
LINE
8
Black
10
153.85
20
-80.7
11
153.85
21
-79.9
0
LINE
8
Black
10
153.85
20
-79.9
11
155.85
21
-79.9
0
LINE
8
Black
10
155.85
20
-79.9
11
155.85
21
-80.7
0
LINE
8
Black
10
150.9
20
-80.325
11
149.9
21
-80.325
0
LINE
8
Black
10
149.9
20
-80.325
11
149.9
21
-80.075
0
LINE
8
Black
10
149.9
20
-80.075
11
150.9
21
-80.075
0
LINE
8
Black
10
150.9
20
-80.075
11
150.9
21
-80.325
0
LINE
8
Black
10
142.4
20
-80.325
11
141.4
21
-80.325
0
LINE
8
Black
10
141.4
20
-80.325
11
141.4
21
-80.075
0
LINE
8
Black
10
141.4
20
-80.075
11
142.4
21
-80.075
0
LINE
8
Black
10
142.4
20
-80.075
11
142.4
21
-80.325
0
LINE
8
Black
10
167.8
20
-80.07
11
166.6
21
-80.07
0
LINE
8
Black
10
166.6
20
-80.07
11
166.6
21
-78.93
0
LINE
8
Black
10
166.6
20
-78.93
11
167.8
21
-78.93
0
LINE
8
Black
10
167.8
20
-78.93
11
167.8
21
-80.07
0
LINE
8
Black
10
142.4
20
-79.825
11
141.4
21
-79.825
0
LINE
8
Black
10
141.4
20
-79.825
11
141.4
21
-79.575
0
LINE
8
Black
10
141.4
20
-79.575
11
142.4
21
-79.575
0
LINE
8
Black
10
142.4
20
-79.575
11
142.4
21
-79.825
0
LINE
8
Black
10
150.9
20
-79.825
11
149.9
21
-79.825
0
LINE
8
Black
10
149.9
20
-79.825
11
149.9
21
-79.575
0
LINE
8
Black
10
149.9
20
-79.575
11
150.9
21
-79.575
0
LINE
8
Black
10
150.9
20
-79.575
11
150.9
21
-79.825
0
LINE
8
Black
10
155.85
20
-79.6
11
153.85
21
-79.6
0
LINE
8
Black
10
153.85
20
-79.6
11
153.85
21
-78.8
0
LINE
8
Black
10
153.85
20
-78.8
11
155.85
21
-78.8
0
LINE
8
Black
10
155.85
20
-78.8
11
155.85
21
-79.6
0
LINE
8
Black
10
165.55
20
-79.6
11
163.55
21
-79.6
0
LINE
8
Black
10
163.55
20
-79.6
11
163.55
21
-78.8
0
LINE
8
Black
10
163.55
20
-78.8
11
165.55
21
-78.8
0
LINE
8
Black
10
165.55
20
-78.8
11
165.55
21
-79.6
0
LINE
8
Black
10
142.4
20
-79.325
11
141.4
21
-79.325
0
LINE
8
Black
10
141.4
20
-79.325
11
141.4
21
-79.075
0
LINE
8
Black
10
141.4
20
-79.075
11
142.4
21
-79.075
0
LINE
8
Black
10
142.4
20
-79.075
11
142.4
21
-79.325
0
LINE
8
Black
10
150.9
20
-79.325
11
149.9
21
-79.325
0
LINE
8
Black
10
149.9
20
-79.325
11
149.9
21
-79.075
0
LINE
8
Black
10
149.9
20
-79.075
11
150.9
21
-79.075
0
LINE
8
Black
10
150.9
20
-79.075
11
150.9
21
-79.325
0
LINE
8
Black
10
150.9
20
-78.825
11
149.9
21
-78.825
0
LINE
8
Black
10
149.9
20
-78.825
11
149.9
21
-78.575
0
LINE
8
Black
10
149.9
20
-78.575
11
150.9
21
-78.575
0
LINE
8
Black
10
150.9
20
-78.575
11
150.9
21
-78.825
0
LINE
8
Black
10
142.4
20
-78.825
11
141.4
21
-78.825
0
LINE
8
Black
10
141.4
20
-78.825
11
141.4
21
-78.575
0
LINE
8
Black
10
141.4
20
-78.575
11
142.4
21
-78.575
0
LINE
8
Black
10
142.4
20
-78.575
11
142.4
21
-78.825
0
LINE
8
Black
10
165.55
20
-78.5
11
163.55
21
-78.5
0
LINE
8
Black
10
163.55
20
-78.5
11
163.55
21
-77.7
0
LINE
8
Black
10
163.55
20
-77.7
11
165.55
21
-77.7
0
LINE
8
Black
10
165.55
20
-77.7
11
165.55
21
-78.5
0
LINE
8
Black
10
155.85
20
-78.5
11
153.85
21
-78.5
0
LINE
8
Black
10
153.85
20
-78.5
11
153.85
21
-77.7
0
LINE
8
Black
10
153.85
20
-77.7
11
155.85
21
-77.7
0
LINE
8
Black
10
155.85
20
-77.7
11
155.85
21
-78.5
0
LINE
8
Black
10
137.17
20
-78.4
11
136.03
21
-78.4
0
LINE
8
Black
10
136.03
20
-78.4
11
136.03
21
-77.2
0
LINE
8
Black
10
136.03
20
-77.2
11
137.17
21
-77.2
0
LINE
8
Black
10
137.17
20
-77.2
11
137.17
21
-78.4
0
LINE
8
Black
10
135.27
20
-78.4
11
134.13
21
-78.4
0
LINE
8
Black
10
134.13
20
-78.4
11
134.13
21
-77.2
0
LINE
8
Black
10
134.13
20
-77.2
11
135.27
21
-77.2
0
LINE
8
Black
10
135.27
20
-77.2
11
135.27
21
-78.4
0
LINE
8
Black
10
150.9
20
-78.325
11
149.9
21
-78.325
0
LINE
8
Black
10
149.9
20
-78.325
11
149.9
21
-78.075
0
LINE
8
Black
10
149.9
20
-78.075
11
150.9
21
-78.075
0
LINE
8
Black
10
150.9
20
-78.075
11
150.9
21
-78.325
0
LINE
8
Black
10
142.4
20
-78.325
11
141.4
21
-78.325
0
LINE
8
Black
10
141.4
20
-78.325
11
141.4
21
-78.075
0
LINE
8
Black
10
141.4
20
-78.075
11
142.4
21
-78.075
0
LINE
8
Black
10
142.4
20
-78.075
11
142.4
21
-78.325
0
LINE
8
Black
10
142.4
20
-77.825
11
141.4
21
-77.825
0
LINE
8
Black
10
141.4
20
-77.825
11
141.4
21
-77.575
0
LINE
8
Black
10
141.4
20
-77.575
11
142.4
21
-77.575
0
LINE
8
Black
10
142.4
20
-77.575
11
142.4
21
-77.825
0
LINE
8
Black
10
150.9
20
-77.825
11
149.9
21
-77.825
0
LINE
8
Black
10
149.9
20
-77.825
11
149.9
21
-77.575
0
LINE
8
Black
10
149.9
20
-77.575
11
150.9
21
-77.575
0
LINE
8
Black
10
150.9
20
-77.575
11
150.9
21
-77.825
0
LINE
8
Black
10
155.85
20
-77.4
11
153.85
21
-77.4
0
LINE
8
Black
10
153.85
20
-77.4
11
153.85
21
-76.6
0
LINE
8
Black
10
153.85
20
-76.6
11
155.85
21
-76.6
0
LINE
8
Black
10
155.85
20
-76.6
11
155.85
21
-77.4
0
LINE
8
Black
10
165.55
20
-77.4
11
163.55
21
-77.4
0
LINE
8
Black
10
163.55
20
-77.4
11
163.55
21
-76.6
0
LINE
8
Black
10
163.55
20
-76.6
11
165.55
21
-76.6
0
LINE
8
Black
10
165.55
20
-76.6
11
165.55
21
-77.4
0
LINE
8
Black
10
142.4
20
-77.325
11
141.4
21
-77.325
0
LINE
8
Black
10
141.4
20
-77.325
11
141.4
21
-77.075
0
LINE
8
Black
10
141.4
20
-77.075
11
142.4
21
-77.075
0
LINE
8
Black
10
142.4
20
-77.075
11
142.4
21
-77.325
0
LINE
8
Black
10
150.9
20
-77.325
11
149.9
21
-77.325
0
LINE
8
Black
10
149.9
20
-77.325
11
149.9
21
-77.075
0
LINE
8
Black
10
149.9
20
-77.075
11
150.9
21
-77.075
0
LINE
8
Black
10
150.9
20
-77.075
11
150.9
21
-77.325
0
LINE
8
Black
10
142.4
20
-76.825
11
141.4
21
-76.825
0
LINE
8
Black
10
141.4
20
-76.825
11
141.4
21
-76.575
0
LINE
8
Black
10
141.4
20
-76.575
11
142.4
21
-76.575
0
LINE
8
Black
10
142.4
20
-76.575
11
142.4
21
-76.825
0
LINE
8
Black
10
150.9
20
-76.825
11
149.9
21
-76.825
0
LINE
8
Black
10
149.9
20
-76.825
11
149.9
21
-76.575
0
LINE
8
Black
10
149.9
20
-76.575
11
150.9
21
-76.575
0
LINE
8
Black
10
150.9
20
-76.575
11
150.9
21
-76.825
0
LINE
8
Black
10
135
20
-76.5
11
133.8
21
-76.5
0
LINE
8
Black
10
133.8
20
-76.5
11
133.8
21
-74.6
0
LINE
8
Black
10
133.8
20
-74.6
11
135
21
-74.6
0
LINE
8
Black
10
135
20
-74.6
11
135
21
-76.5
0
LINE
8
Black
10
137.2
20
-76.5
11
136
21
-76.5
0
LINE
8
Black
10
136
20
-76.5
11
136
21
-74.6
0
LINE
8
Black
10
136
20
-74.6
11
137.2
21
-74.6
0
LINE
8
Black
10
137.2
20
-74.6
11
137.2
21
-76.5
0
LINE
8
Black
10
142.4
20
-76.325
11
141.4
21
-76.325
0
LINE
8
Black
10
141.4
20
-76.325
11
141.4
21
-76.075
0
LINE
8
Black
10
141.4
20
-76.075
11
142.4
21
-76.075
0
LINE
8
Black
10
142.4
20
-76.075
11
142.4
21
-76.325
0
LINE
8
Black
10
150.9
20
-76.325
11
149.9
21
-76.325
0
LINE
8
Black
10
149.9
20
-76.325
11
149.9
21
-76.075
0
LINE
8
Black
10
149.9
20
-76.075
11
150.9
21
-76.075
0
LINE
8
Black
10
150.9
20
-76.075
11
150.9
21
-76.325
0
LINE
8
Black
10
155.85
20
-76.3
11
153.85
21
-76.3
0
LINE
8
Black
10
153.85
20
-76.3
11
153.85
21
-75.5
0
LINE
8
Black
10
153.85
20
-75.5
11
155.85
21
-75.5
0
LINE
8
Black
10
155.85
20
-75.5
11
155.85
21
-76.3
0
LINE
8
Black
10
165.55
20
-76.3
11
163.55
21
-76.3
0
LINE
8
Black
10
163.55
20
-76.3
11
163.55
21
-75.5
0
LINE
8
Black
10
163.55
20
-75.5
11
165.55
21
-75.5
0
LINE
8
Black
10
165.55
20
-75.5
11
165.55
21
-76.3
0
LINE
8
Black
10
150.9
20
-75.825
11
149.9
21
-75.825
0
LINE
8
Black
10
149.9
20
-75.825
11
149.9
21
-75.575
0
LINE
8
Black
10
149.9
20
-75.575
11
150.9
21
-75.575
0
LINE
8
Black
10
150.9
20
-75.575
11
150.9
21
-75.825
0
LINE
8
Black
10
142.4
20
-75.825
11
141.4
21
-75.825
0
LINE
8
Black
10
141.4
20
-75.825
11
141.4
21
-75.575
0
LINE
8
Black
10
141.4
20
-75.575
11
142.4
21
-75.575
0
LINE
8
Black
10
142.4
20
-75.575
11
142.4
21
-75.825
0
LINE
8
Black
10
165.55
20
-75.2
11
163.55
21
-75.2
0
LINE
8
Black
10
163.55
20
-75.2
11
163.55
21
-74.4
0
LINE
8
Black
10
163.55
20
-74.4
11
165.55
21
-74.4
0
LINE
8
Black
10
165.55
20
-74.4
11
165.55
21
-75.2
0
LINE
8
Black
10
155.85
20
-75.2
11
153.85
21
-75.2
0
LINE
8
Black
10
153.85
20
-75.2
11
153.85
21
-74.4
0
LINE
8
Black
10
153.85
20
-74.4
11
155.85
21
-74.4
0
LINE
8
Black
10
155.85
20
-74.4
11
155.85
21
-75.2
0
LINE
8
Black
10
149.025
20
-74.7
11
148.775
21
-74.7
0
LINE
8
Black
10
148.775
20
-74.7
11
148.775
21
-73.7
0
LINE
8
Black
10
148.775
20
-73.7
11
149.025
21
-73.7
0
LINE
8
Black
10
149.025
20
-73.7
11
149.025
21
-74.7
0
LINE
8
Black
10
148.525
20
-74.7
11
148.275
21
-74.7
0
LINE
8
Black
10
148.275
20
-74.7
11
148.275
21
-73.7
0
LINE
8
Black
10
148.275
20
-73.7
11
148.525
21
-73.7
0
LINE
8
Black
10
148.525
20
-73.7
11
148.525
21
-74.7
0
LINE
8
Black
10
148.025
20
-74.7
11
147.775
21
-74.7
0
LINE
8
Black
10
147.775
20
-74.7
11
147.775
21
-73.7
0
LINE
8
Black
10
147.775
20
-73.7
11
148.025
21
-73.7
0
LINE
8
Black
10
148.025
20
-73.7
11
148.025
21
-74.7
0
LINE
8
Black
10
146.525
20
-74.7
11
146.275
21
-74.7
0
LINE
8
Black
10
146.275
20
-74.7
11
146.275
21
-73.7
0
LINE
8
Black
10
146.275
20
-73.7
11
146.525
21
-73.7
0
LINE
8
Black
10
146.525
20
-73.7
11
146.525
21
-74.7
0
LINE
8
Black
10
143.525
20
-74.7
11
143.275
21
-74.7
0
LINE
8
Black
10
143.275
20
-74.7
11
143.275
21
-73.7
0
LINE
8
Black
10
143.275
20
-73.7
11
143.525
21
-73.7
0
LINE
8
Black
10
143.525
20
-73.7
11
143.525
21
-74.7
0
LINE
8
Black
10
144.025
20
-74.7
11
143.775
21
-74.7
0
LINE
8
Black
10
143.775
20
-74.7
11
143.775
21
-73.7
0
LINE
8
Black
10
143.775
20
-73.7
11
144.025
21
-73.7
0
LINE
8
Black
10
144.025
20
-73.7
11
144.025
21
-74.7
0
LINE
8
Black
10
144.525
20
-74.7
11
144.275
21
-74.7
0
LINE
8
Black
10
144.275
20
-74.7
11
144.275
21
-73.7
0
LINE
8
Black
10
144.275
20
-73.7
11
144.525
21
-73.7
0
LINE
8
Black
10
144.525
20
-73.7
11
144.525
21
-74.7
0
LINE
8
Black
10
145.025
20
-74.7
11
144.775
21
-74.7
0
LINE
8
Black
10
144.775
20
-74.7
11
144.775
21
-73.7
0
LINE
8
Black
10
144.775
20
-73.7
11
145.025
21
-73.7
0
LINE
8
Black
10
145.025
20
-73.7
11
145.025
21
-74.7
0
LINE
8
Black
10
145.525
20
-74.7
11
145.275
21
-74.7
0
LINE
8
Black
10
145.275
20
-74.7
11
145.275
21
-73.7
0
LINE
8
Black
10
145.275
20
-73.7
11
145.525
21
-73.7
0
LINE
8
Black
10
145.525
20
-73.7
11
145.525
21
-74.7
0
LINE
8
Black
10
147.525
20
-74.7
11
147.275
21
-74.7
0
LINE
8
Black
10
147.275
20
-74.7
11
147.275
21
-73.7
0
LINE
8
Black
10
147.275
20
-73.7
11
147.525
21
-73.7
0
LINE
8
Black
10
147.525
20
-73.7
11
147.525
21
-74.7
0
LINE
8
Black
10
146.025
20
-74.7
11
145.775
21
-74.7
0
LINE
8
Black
10
145.775
20
-74.7
11
145.775
21
-73.7
0
LINE
8
Black
10
145.775
20
-73.7
11
146.025
21
-73.7
0
LINE
8
Black
10
146.025
20
-73.7
11
146.025
21
-74.7
0
LINE
8
Black
10
147.025
20
-74.7
11
146.775
21
-74.7
0
LINE
8
Black
10
146.775
20
-74.7
11
146.775
21
-73.7
0
LINE
8
Black
10
146.775
20
-73.7
11
147.025
21
-73.7
0
LINE
8
Black
10
147.025
20
-73.7
11
147.025
21
-74.7
0
LINE
8
Black
10
132.6
20
-74.42
11
131.4
21
-74.42
0
LINE
8
Black
10
131.4
20
-74.42
11
131.4
21
-73.28
0
LINE
8
Black
10
131.4
20
-73.28
11
132.6
21
-73.28
0
LINE
8
Black
10
132.6
20
-73.28
11
132.6
21
-74.42
0
LINE
8
Black
10
165.55
20
-74.05
11
163.55
21
-74.05
0
LINE
8
Black
10
163.55
20
-74.05
11
163.55
21
-73.35
0
LINE
8
Black
10
163.55
20
-73.35
11
165.55
21
-73.35
0
LINE
8
Black
10
165.55
20
-73.35
11
165.55
21
-74.05
0
LINE
8
Black
10
155.85
20
-74.05
11
153.85
21
-74.05
0
LINE
8
Black
10
153.85
20
-74.05
11
153.85
21
-73.35
0
LINE
8
Black
10
153.85
20
-73.35
11
155.85
21
-73.35
0
LINE
8
Black
10
155.85
20
-73.35
11
155.85
21
-74.05
0
LINE
8
Black
10
135
20
-72.8
11
133.8
21
-72.8
0
LINE
8
Black
10
133.8
20
-72.8
11
133.8
21
-70.9
0
LINE
8
Black
10
133.8
20
-70.9
11
135
21
-70.9
0
LINE
8
Black
10
135
20
-70.9
11
135
21
-72.8
0
LINE
8
Black
10
137.2
20
-72.8
11
136
21
-72.8
0
LINE
8
Black
10
136
20
-72.8
11
136
21
-70.9
0
LINE
8
Black
10
136
20
-70.9
11
137.2
21
-70.9
0
LINE
8
Black
10
137.2
20
-70.9
11
137.2
21
-72.8
0
LINE
8
Black
10
132.6
20
-72.52
11
131.4
21
-72.52
0
LINE
8
Black
10
131.4
20
-72.52
11
131.4
21
-71.38
0
LINE
8
Black
10
131.4
20
-71.38
11
132.6
21
-71.38
0
LINE
8
Black
10
132.6
20
-71.38
11
132.6
21
-72.52
0
LINE
8
Black
10
147.47
20
-71.6
11
146.33
21
-71.6
0
LINE
8
Black
10
146.33
20
-71.6
11
146.33
21
-70.4
0
LINE
8
Black
10
146.33
20
-70.4
11
147.47
21
-70.4
0
LINE
8
Black
10
147.47
20
-70.4
11
147.47
21
-71.6
0
LINE
8
Black
10
145.57
20
-71.6
11
144.43
21
-71.6
0
LINE
8
Black
10
144.43
20
-71.6
11
144.43
21
-70.4
0
LINE
8
Black
10
144.43
20
-70.4
11
145.57
21
-70.4
0
LINE
8
Black
10
145.57
20
-70.4
11
145.57
21
-71.6
0
LINE
8
Black
10
141.17
20
-70.1
11
140.03
21
-70.1
0
LINE
8
Black
10
140.03
20
-70.1
11
140.03
21
-68.9
0
LINE
8
Black
10
140.03
20
-68.9
11
141.17
21
-68.9
0
LINE
8
Black
10
141.17
20
-68.9
11
141.17
21
-70.1
0
LINE
8
Black
10
139.27
20
-70.1
11
138.13
21
-70.1
0
LINE
8
Black
10
138.13
20
-70.1
11
138.13
21
-68.9
0
LINE
8
Black
10
138.13
20
-68.9
11
139.27
21
-68.9
0
LINE
8
Black
10
139.27
20
-68.9
11
139.27
21
-70.1
0
LINE
8
Black
10
151.42
20
-69.6
11
150.28
21
-69.6
0
LINE
8
Black
10
150.28
20
-69.6
11
150.28
21
-68.4
0
LINE
8
Black
10
150.28
20
-68.4
11
151.42
21
-68.4
0
LINE
8
Black
10
151.42
20
-68.4
11
151.42
21
-69.6
0
LINE
8
Black
10
149.52
20
-69.6
11
148.38
21
-69.6
0
LINE
8
Black
10
148.38
20
-69.6
11
148.38
21
-68.4
0
LINE
8
Black
10
148.38
20
-68.4
11
149.52
21
-68.4
0
LINE
8
Black
10
149.52
20
-68.4
11
149.52
21
-69.6
0
LINE
8
Black
10
145.57
20
-69.6
11
144.43
21
-69.6
0
LINE
8
Black
10
144.43
20
-69.6
11
144.43
21
-68.4
0
LINE
8
Black
10
144.43
20
-68.4
11
145.57
21
-68.4
0
LINE
8
Black
10
145.57
20
-68.4
11
145.57
21
-69.6
0
LINE
8
Black
10
147.47
20
-69.6
11
146.33
21
-69.6
0
LINE
8
Black
10
146.33
20
-69.6
11
146.33
21
-68.4
0
LINE
8
Black
10
146.33
20
-68.4
11
147.47
21
-68.4
0
LINE
8
Black
10
147.47
20
-68.4
11
147.47
21
-69.6
0
LINE
8
Black
10
139.27
20
-68.1
11
138.13
21
-68.1
0
LINE
8
Black
10
138.13
20
-68.1
11
138.13
21
-66.9
0
LINE
8
Black
10
138.13
20
-66.9
11
139.27
21
-66.9
0
LINE
8
Black
10
139.27
20
-66.9
11
139.27
21
-68.1
0
LINE
8
Black
10
141.17
20
-68.1
11
140.03
21
-68.1
0
LINE
8
Black
10
140.03
20
-68.1
11
140.03
21
-66.9
0
LINE
8
Black
10
140.03
20
-66.9
11
141.17
21
-66.9
0
LINE
8
Black
10
141.17
20
-66.9
11
141.17
21
-68.1
0
LINE
8
Black
10
149.57
20
-67.6
11
148.43
21
-67.6
0
LINE
8
Black
10
148.43
20
-67.6
11
148.43
21
-66.4
0
LINE
8
Black
10
148.43
20
-66.4
11
149.57
21
-66.4
0
LINE
8
Black
10
149.57
20
-66.4
11
149.57
21
-67.6
0
LINE
8
Black
10
151.47
20
-67.6
11
150.33
21
-67.6
0
LINE
8
Black
10
150.33
20
-67.6
11
150.33
21
-66.4
0
LINE
8
Black
10
150.33
20
-66.4
11
151.47
21
-66.4
0
LINE
8
Black
10
151.47
20
-66.4
11
151.47
21
-67.6
0
LINE
8
Black
10
145.57
20
-67.6
11
144.43
21
-67.6
0
LINE
8
Black
10
144.43
20
-67.6
11
144.43
21
-66.4
0
LINE
8
Black
10
144.43
20
-66.4
11
145.57
21
-66.4
0
LINE
8
Black
10
145.57
20
-66.4
11
145.57
21
-67.6
0
LINE
8
Black
10
147.47
20
-67.6
11
146.33
21
-67.6
0
LINE
8
Black
10
146.33
20
-67.6
11
146.33
21
-66.4
0
LINE
8
Black
10
146.33
20
-66.4
11
147.47
21
-66.4
0
LINE
8
Black
10
147.47
20
-66.4
11
147.47
21
-67.6
  0
ENDSEC
  0
EOF
