G04 #@! TF.FileFunction,Legend,Top*
%FSLAX46Y46*%
G04 Gerber Fmt 4.6, Leading zero omitted, Abs format (unit mm)*
G04 Created by KiCad (PCBNEW 4.0.3-stable) date 12/05/16 18:01:04*
%MOMM*%
%LPD*%
G01*
G04 APERTURE LIST*
%ADD10C,0.100000*%
%ADD11C,0.200000*%
%ADD12C,0.150000*%
G04 APERTURE END LIST*
D10*
D11*
X138185715Y-80700000D02*
X138071429Y-80642857D01*
X137900000Y-80642857D01*
X137728572Y-80700000D01*
X137614286Y-80814286D01*
X137557143Y-80928571D01*
X137500000Y-81157143D01*
X137500000Y-81328571D01*
X137557143Y-81557143D01*
X137614286Y-81671429D01*
X137728572Y-81785714D01*
X137900000Y-81842857D01*
X138014286Y-81842857D01*
X138185715Y-81785714D01*
X138242858Y-81728571D01*
X138242858Y-81328571D01*
X138014286Y-81328571D01*
X138757143Y-81842857D02*
X138757143Y-80642857D01*
X139442858Y-81842857D01*
X139442858Y-80642857D01*
X140014286Y-81842857D02*
X140014286Y-80642857D01*
X140300001Y-80642857D01*
X140471429Y-80700000D01*
X140585715Y-80814286D01*
X140642858Y-80928571D01*
X140700001Y-81157143D01*
X140700001Y-81328571D01*
X140642858Y-81557143D01*
X140585715Y-81671429D01*
X140471429Y-81785714D01*
X140300001Y-81842857D01*
X140014286Y-81842857D01*
X137985715Y-82742857D02*
X138671429Y-82742857D01*
X138328572Y-83942857D02*
X138328572Y-82742857D01*
X138957144Y-82742857D02*
X139757144Y-83942857D01*
X139757144Y-82742857D02*
X138957144Y-83942857D01*
X138700001Y-85942857D02*
X138300001Y-85371429D01*
X138014286Y-85942857D02*
X138014286Y-84742857D01*
X138471429Y-84742857D01*
X138585715Y-84800000D01*
X138642858Y-84857143D01*
X138700001Y-84971429D01*
X138700001Y-85142857D01*
X138642858Y-85257143D01*
X138585715Y-85314286D01*
X138471429Y-85371429D01*
X138014286Y-85371429D01*
X139100001Y-84742857D02*
X139900001Y-85942857D01*
X139900001Y-84742857D02*
X139100001Y-85942857D01*
X138671429Y-86642857D02*
X138100000Y-86642857D01*
X138042857Y-87214286D01*
X138100000Y-87157143D01*
X138214286Y-87100000D01*
X138500000Y-87100000D01*
X138614286Y-87157143D01*
X138671429Y-87214286D01*
X138728572Y-87328571D01*
X138728572Y-87614286D01*
X138671429Y-87728571D01*
X138614286Y-87785714D01*
X138500000Y-87842857D01*
X138214286Y-87842857D01*
X138100000Y-87785714D01*
X138042857Y-87728571D01*
X139071429Y-86642857D02*
X139471429Y-87842857D01*
X139871429Y-86642857D01*
D12*
X146086167Y-66713329D02*
X145786167Y-67013329D01*
X146086167Y-67313329D02*
X146086167Y-66713329D01*
X145786167Y-67013329D02*
X146086167Y-67313329D01*
X145786167Y-67313329D02*
X145786167Y-66713329D01*
X147750000Y-66100000D02*
X147350000Y-66100000D01*
X147750000Y-67900000D02*
X147750000Y-66100000D01*
X147750000Y-67900000D02*
X147350000Y-67900000D01*
X144150000Y-67900000D02*
X144550000Y-67900000D01*
X144150000Y-66100000D02*
X144150000Y-67900000D01*
X144550000Y-66100000D02*
X144150000Y-66100000D01*
X131100000Y-74700000D02*
G75*
G03X132900000Y-74700000I900000J800000D01*
G01*
X132900000Y-71100000D02*
G75*
G03X131100000Y-71100000I-900000J-800000D01*
G01*
X131100000Y-71100000D02*
X131100000Y-71500000D01*
X132900000Y-71100000D02*
X132900000Y-71500000D01*
X132900000Y-74700000D02*
X132900000Y-74300000D01*
X131100000Y-74300000D02*
X131100000Y-74700000D01*
X140600000Y-92500000D02*
G75*
G03X142400000Y-92500000I900000J800000D01*
G01*
X142400000Y-88900000D02*
G75*
G03X140600000Y-88900000I-900000J-800000D01*
G01*
X140600000Y-88900000D02*
X140600000Y-89300000D01*
X142400000Y-88900000D02*
X142400000Y-89300000D01*
X142400000Y-92500000D02*
X142400000Y-92100000D01*
X140600000Y-92100000D02*
X140600000Y-92500000D01*
X138600000Y-92500000D02*
G75*
G03X140400000Y-92500000I900000J800000D01*
G01*
X140400000Y-88900000D02*
G75*
G03X138600000Y-88900000I-900000J-800000D01*
G01*
X138600000Y-88900000D02*
X138600000Y-89300000D01*
X140400000Y-88900000D02*
X140400000Y-89300000D01*
X140400000Y-92500000D02*
X140400000Y-92100000D01*
X138600000Y-92100000D02*
X138600000Y-92500000D01*
X152200000Y-92550000D02*
G75*
G03X154000000Y-92550000I900000J800000D01*
G01*
X154000000Y-88950000D02*
G75*
G03X152200000Y-88950000I-900000J-800000D01*
G01*
X152200000Y-88950000D02*
X152200000Y-89350000D01*
X154000000Y-88950000D02*
X154000000Y-89350000D01*
X154000000Y-92550000D02*
X154000000Y-92150000D01*
X152200000Y-92150000D02*
X152200000Y-92550000D01*
X154200000Y-92550000D02*
G75*
G03X156000000Y-92550000I900000J800000D01*
G01*
X156000000Y-88950000D02*
G75*
G03X154200000Y-88950000I-900000J-800000D01*
G01*
X154200000Y-88950000D02*
X154200000Y-89350000D01*
X156000000Y-88950000D02*
X156000000Y-89350000D01*
X156000000Y-92550000D02*
X156000000Y-92150000D01*
X154200000Y-92150000D02*
X154200000Y-92550000D01*
X133850000Y-76900000D02*
G75*
G03X133850000Y-78700000I800000J-900000D01*
G01*
X137450000Y-78700000D02*
G75*
G03X137450000Y-76900000I-800000J900000D01*
G01*
X137450000Y-76900000D02*
X137050000Y-76900000D01*
X137450000Y-78700000D02*
X137050000Y-78700000D01*
X133850000Y-78700000D02*
X134250000Y-78700000D01*
X134250000Y-76900000D02*
X133850000Y-76900000D01*
X137850000Y-68600000D02*
G75*
G03X137850000Y-70400000I800000J-900000D01*
G01*
X141450000Y-70400000D02*
G75*
G03X141450000Y-68600000I-800000J900000D01*
G01*
X141450000Y-68600000D02*
X141050000Y-68600000D01*
X141450000Y-70400000D02*
X141050000Y-70400000D01*
X137850000Y-70400000D02*
X138250000Y-70400000D01*
X138250000Y-68600000D02*
X137850000Y-68600000D01*
X161463833Y-92486671D02*
X161763833Y-92186671D01*
X161463833Y-91886671D02*
X161463833Y-92486671D01*
X161763833Y-92186671D02*
X161463833Y-91886671D01*
X161763833Y-91886671D02*
X161763833Y-92486671D01*
X159800000Y-93100000D02*
X160200000Y-93100000D01*
X159800000Y-91300000D02*
X159800000Y-93100000D01*
X159800000Y-91300000D02*
X160200000Y-91300000D01*
X163400000Y-91300000D02*
X163000000Y-91300000D01*
X163400000Y-93100000D02*
X163400000Y-91300000D01*
X163000000Y-93100000D02*
X163400000Y-93100000D01*
X161013833Y-85686671D02*
X161313833Y-85386671D01*
X161013833Y-85086671D02*
X161013833Y-85686671D01*
X161313833Y-85386671D02*
X161013833Y-85086671D01*
X161313833Y-85086671D02*
X161313833Y-85686671D01*
X159350000Y-86300000D02*
X159750000Y-86300000D01*
X159350000Y-84500000D02*
X159350000Y-86300000D01*
X159350000Y-84500000D02*
X159750000Y-84500000D01*
X162950000Y-84500000D02*
X162550000Y-84500000D01*
X162950000Y-86300000D02*
X162950000Y-84500000D01*
X162550000Y-86300000D02*
X162950000Y-86300000D01*
X166500000Y-82250000D02*
X167900000Y-82250000D01*
X167900000Y-78650000D02*
X166500000Y-78650000D01*
D10*
X133800000Y-87300000D02*
X133800000Y-88800000D01*
X133700000Y-87300000D02*
X133800000Y-87300000D01*
X130800000Y-87300000D02*
X133700000Y-87300000D01*
X130800000Y-88800000D02*
X130800000Y-87300000D01*
X133800000Y-88800000D02*
X130800000Y-88800000D01*
X133800000Y-79800000D02*
X133800000Y-81300000D01*
X130800000Y-79800000D02*
X133800000Y-79800000D01*
X130800000Y-81300000D02*
X130800000Y-79800000D01*
X133800000Y-81300000D02*
X130800000Y-81300000D01*
X133800000Y-82300000D02*
X129600000Y-82300000D01*
X133800000Y-86300000D02*
X133800000Y-82300000D01*
X129600000Y-86300000D02*
X133800000Y-86300000D01*
X137300000Y-87100000D02*
X136900000Y-87300000D01*
X137300000Y-87500000D02*
X137300000Y-87100000D01*
X136900000Y-87300000D02*
X137300000Y-87500000D01*
X135800000Y-88800000D02*
X135800000Y-88300000D01*
X135800000Y-79800000D02*
X135800000Y-80300000D01*
X137400000Y-79800000D02*
X135800000Y-79800000D01*
X137400000Y-79300000D02*
X137400000Y-79800000D01*
X137400000Y-88800000D02*
X137400000Y-89300000D01*
X135800000Y-88800000D02*
X137400000Y-88800000D01*
X129600000Y-89300000D02*
X129600000Y-79300000D01*
X137400000Y-79300000D02*
X129600000Y-79300000D01*
X129600000Y-89300000D02*
X137400000Y-89300000D01*
D12*
X158000000Y-92550000D02*
X158000000Y-92150000D01*
X156200000Y-92550000D02*
X158000000Y-92550000D01*
X156200000Y-92550000D02*
X156200000Y-92150000D01*
X156200000Y-88950000D02*
X156200000Y-89350000D01*
X158000000Y-88950000D02*
X156200000Y-88950000D01*
X158000000Y-89350000D02*
X158000000Y-88950000D01*
X147750000Y-70100000D02*
X147350000Y-70100000D01*
X147750000Y-71900000D02*
X147750000Y-70100000D01*
X147750000Y-71900000D02*
X147350000Y-71900000D01*
X144150000Y-71900000D02*
X144550000Y-71900000D01*
X144150000Y-70100000D02*
X144150000Y-71900000D01*
X144550000Y-70100000D02*
X144150000Y-70100000D01*
X159000000Y-84500000D02*
X158600000Y-84500000D01*
X159000000Y-86300000D02*
X159000000Y-84500000D01*
X159000000Y-86300000D02*
X158600000Y-86300000D01*
X155400000Y-86300000D02*
X155800000Y-86300000D01*
X155400000Y-84500000D02*
X155400000Y-86300000D01*
X155800000Y-84500000D02*
X155400000Y-84500000D01*
X137850000Y-68400000D02*
X138250000Y-68400000D01*
X137850000Y-66600000D02*
X137850000Y-68400000D01*
X137850000Y-66600000D02*
X138250000Y-66600000D01*
X141450000Y-66600000D02*
X141050000Y-66600000D01*
X141450000Y-68400000D02*
X141450000Y-66600000D01*
X141050000Y-68400000D02*
X141450000Y-68400000D01*
X144150000Y-85900000D02*
X144550000Y-85900000D01*
X144150000Y-84100000D02*
X144150000Y-85900000D01*
X144150000Y-84100000D02*
X144550000Y-84100000D01*
X147750000Y-84100000D02*
X147350000Y-84100000D01*
X147750000Y-85900000D02*
X147750000Y-84100000D01*
X147350000Y-85900000D02*
X147750000Y-85900000D01*
X148150000Y-67900000D02*
X148550000Y-67900000D01*
X148150000Y-66100000D02*
X148150000Y-67900000D01*
X148150000Y-66100000D02*
X148550000Y-66100000D01*
X151750000Y-66100000D02*
X151350000Y-66100000D01*
X151750000Y-67900000D02*
X151750000Y-66100000D01*
X151350000Y-67900000D02*
X151750000Y-67900000D01*
X148100000Y-69900000D02*
X148500000Y-69900000D01*
X148100000Y-68100000D02*
X148100000Y-69900000D01*
X148100000Y-68100000D02*
X148500000Y-68100000D01*
X151700000Y-68100000D02*
X151300000Y-68100000D01*
X151700000Y-69900000D02*
X151700000Y-68100000D01*
X151300000Y-69900000D02*
X151700000Y-69900000D01*
D10*
X144300000Y-87400000D02*
G75*
G03X144300000Y-87400000I-100000J0D01*
G01*
X145400000Y-94100000D02*
X145400000Y-91900000D01*
X145400000Y-87700000D02*
X149000000Y-87700000D01*
X145400000Y-91900000D02*
X145400000Y-87700000D01*
X149000000Y-94100000D02*
X145400000Y-94100000D01*
X149000000Y-87700000D02*
X149000000Y-94100000D01*
D12*
X153282843Y-73700000D02*
G75*
G03X153282843Y-73700000I-282843J0D01*
G01*
X154800000Y-73000000D02*
X164500000Y-73000000D01*
X154800000Y-83200000D02*
X164600000Y-83200000D01*
X141850000Y-74150000D02*
X141950000Y-74150000D01*
X141850000Y-74350000D02*
X141850000Y-74150000D01*
X142150000Y-74050000D02*
X141850000Y-74350000D01*
X141750000Y-74050000D02*
X142150000Y-74050000D01*
X141750000Y-74550000D02*
X141750000Y-74050000D01*
X142350000Y-73950000D02*
X141750000Y-74550000D01*
X141650000Y-73950000D02*
X142350000Y-73950000D01*
X141650000Y-74750000D02*
X141650000Y-73950000D01*
X142450000Y-73950000D02*
X141650000Y-74750000D01*
X142550000Y-73850000D02*
X142450000Y-73950000D01*
X141550000Y-73850000D02*
X142550000Y-73850000D01*
X141550000Y-74850000D02*
X141550000Y-73850000D01*
X141450000Y-75050000D02*
X141550000Y-74850000D01*
X142750000Y-73750000D02*
X141450000Y-75050000D01*
X141450000Y-73750000D02*
X142750000Y-73750000D01*
X141450000Y-73750000D02*
X141450000Y-75050000D01*
X142650000Y-75200000D02*
X142900000Y-74950000D01*
X149400000Y-74950000D02*
X149650000Y-74950000D01*
X149650000Y-74950000D02*
X149650000Y-75200000D01*
X142900000Y-81950000D02*
X142650000Y-81950000D01*
X142650000Y-81950000D02*
X142650000Y-81700000D01*
X149400000Y-81950000D02*
X149650000Y-81950000D01*
X149650000Y-81950000D02*
X149650000Y-81700000D01*
X133400000Y-70500000D02*
X133400000Y-71100000D01*
X134100000Y-70500000D02*
X133400000Y-70500000D01*
X135700000Y-71200000D02*
X135300000Y-71200000D01*
X135700000Y-76200000D02*
X135300000Y-76200000D01*
X133900000Y-73200000D02*
X133900000Y-74200000D01*
X137100000Y-73200000D02*
X137100000Y-74200000D01*
X135000000Y-67500000D02*
G75*
G03X135000000Y-67500000I-2500000J0D01*
G01*
X170000000Y-67500000D02*
G75*
G03X170000000Y-67500000I-2500000J0D01*
G01*
X170000000Y-92500000D02*
G75*
G03X170000000Y-92500000I-2500000J0D01*
G01*
X135000000Y-92500000D02*
G75*
G03X135000000Y-92500000I-2500000J0D01*
G01*
X146086167Y-68713329D02*
X145786167Y-69013329D01*
X146086167Y-69313329D02*
X146086167Y-68713329D01*
X145786167Y-69013329D02*
X146086167Y-69313329D01*
X145786167Y-69313329D02*
X145786167Y-68713329D01*
X147750000Y-68100000D02*
X147350000Y-68100000D01*
X147750000Y-69900000D02*
X147750000Y-68100000D01*
X147750000Y-69900000D02*
X147350000Y-69900000D01*
X144150000Y-69900000D02*
X144550000Y-69900000D01*
X144150000Y-68100000D02*
X144150000Y-69900000D01*
X144550000Y-68100000D02*
X144150000Y-68100000D01*
D10*
X158400000Y-69400000D02*
X158400000Y-69800000D01*
X160400000Y-69400000D02*
X158400000Y-69400000D01*
X160400000Y-69600000D02*
X160400000Y-69400000D01*
X160400000Y-69800000D02*
X160400000Y-69600000D01*
X155400000Y-65300000D02*
X155400000Y-69800000D01*
X163400000Y-65300000D02*
X155400000Y-65300000D01*
X163400000Y-69800000D02*
X163400000Y-65300000D01*
X158400000Y-69800000D02*
X155400000Y-69800000D01*
X163400000Y-69800000D02*
X160400000Y-69800000D01*
D12*
X165900000Y-84500000D02*
X166400000Y-84500000D01*
X165900000Y-87300000D02*
X168500000Y-87300000D01*
X168500000Y-84500000D02*
X168000000Y-84500000D01*
X142411905Y-67352381D02*
X142411905Y-66352381D01*
X142650000Y-66352381D01*
X142792858Y-66400000D01*
X142888096Y-66495238D01*
X142935715Y-66590476D01*
X142983334Y-66780952D01*
X142983334Y-66923810D01*
X142935715Y-67114286D01*
X142888096Y-67209524D01*
X142792858Y-67304762D01*
X142650000Y-67352381D01*
X142411905Y-67352381D01*
X143316667Y-66352381D02*
X143935715Y-66352381D01*
X143602381Y-66733333D01*
X143745239Y-66733333D01*
X143840477Y-66780952D01*
X143888096Y-66828571D01*
X143935715Y-66923810D01*
X143935715Y-67161905D01*
X143888096Y-67257143D01*
X143840477Y-67304762D01*
X143745239Y-67352381D01*
X143459524Y-67352381D01*
X143364286Y-67304762D01*
X143316667Y-67257143D01*
X131833334Y-76307143D02*
X131785715Y-76354762D01*
X131642858Y-76402381D01*
X131547620Y-76402381D01*
X131404762Y-76354762D01*
X131309524Y-76259524D01*
X131261905Y-76164286D01*
X131214286Y-75973810D01*
X131214286Y-75830952D01*
X131261905Y-75640476D01*
X131309524Y-75545238D01*
X131404762Y-75450000D01*
X131547620Y-75402381D01*
X131642858Y-75402381D01*
X131785715Y-75450000D01*
X131833334Y-75497619D01*
X132785715Y-76402381D02*
X132214286Y-76402381D01*
X132500000Y-76402381D02*
X132500000Y-75402381D01*
X132404762Y-75545238D01*
X132309524Y-75640476D01*
X132214286Y-75688095D01*
X141333334Y-94057143D02*
X141285715Y-94104762D01*
X141142858Y-94152381D01*
X141047620Y-94152381D01*
X140904762Y-94104762D01*
X140809524Y-94009524D01*
X140761905Y-93914286D01*
X140714286Y-93723810D01*
X140714286Y-93580952D01*
X140761905Y-93390476D01*
X140809524Y-93295238D01*
X140904762Y-93200000D01*
X141047620Y-93152381D01*
X141142858Y-93152381D01*
X141285715Y-93200000D01*
X141333334Y-93247619D01*
X141714286Y-93247619D02*
X141761905Y-93200000D01*
X141857143Y-93152381D01*
X142095239Y-93152381D01*
X142190477Y-93200000D01*
X142238096Y-93247619D01*
X142285715Y-93342857D01*
X142285715Y-93438095D01*
X142238096Y-93580952D01*
X141666667Y-94152381D01*
X142285715Y-94152381D01*
X139333334Y-94057143D02*
X139285715Y-94104762D01*
X139142858Y-94152381D01*
X139047620Y-94152381D01*
X138904762Y-94104762D01*
X138809524Y-94009524D01*
X138761905Y-93914286D01*
X138714286Y-93723810D01*
X138714286Y-93580952D01*
X138761905Y-93390476D01*
X138809524Y-93295238D01*
X138904762Y-93200000D01*
X139047620Y-93152381D01*
X139142858Y-93152381D01*
X139285715Y-93200000D01*
X139333334Y-93247619D01*
X139666667Y-93152381D02*
X140285715Y-93152381D01*
X139952381Y-93533333D01*
X140095239Y-93533333D01*
X140190477Y-93580952D01*
X140238096Y-93628571D01*
X140285715Y-93723810D01*
X140285715Y-93961905D01*
X140238096Y-94057143D01*
X140190477Y-94104762D01*
X140095239Y-94152381D01*
X139809524Y-94152381D01*
X139714286Y-94104762D01*
X139666667Y-94057143D01*
X152933334Y-94057143D02*
X152885715Y-94104762D01*
X152742858Y-94152381D01*
X152647620Y-94152381D01*
X152504762Y-94104762D01*
X152409524Y-94009524D01*
X152361905Y-93914286D01*
X152314286Y-93723810D01*
X152314286Y-93580952D01*
X152361905Y-93390476D01*
X152409524Y-93295238D01*
X152504762Y-93200000D01*
X152647620Y-93152381D01*
X152742858Y-93152381D01*
X152885715Y-93200000D01*
X152933334Y-93247619D01*
X153790477Y-93485714D02*
X153790477Y-94152381D01*
X153552381Y-93104762D02*
X153314286Y-93819048D01*
X153933334Y-93819048D01*
X154933334Y-94107143D02*
X154885715Y-94154762D01*
X154742858Y-94202381D01*
X154647620Y-94202381D01*
X154504762Y-94154762D01*
X154409524Y-94059524D01*
X154361905Y-93964286D01*
X154314286Y-93773810D01*
X154314286Y-93630952D01*
X154361905Y-93440476D01*
X154409524Y-93345238D01*
X154504762Y-93250000D01*
X154647620Y-93202381D01*
X154742858Y-93202381D01*
X154885715Y-93250000D01*
X154933334Y-93297619D01*
X155838096Y-93202381D02*
X155361905Y-93202381D01*
X155314286Y-93678571D01*
X155361905Y-93630952D01*
X155457143Y-93583333D01*
X155695239Y-93583333D01*
X155790477Y-93630952D01*
X155838096Y-93678571D01*
X155885715Y-93773810D01*
X155885715Y-94011905D01*
X155838096Y-94107143D01*
X155790477Y-94154762D01*
X155695239Y-94202381D01*
X155457143Y-94202381D01*
X155361905Y-94154762D01*
X155314286Y-94107143D01*
X139157143Y-77166666D02*
X139204762Y-77214285D01*
X139252381Y-77357142D01*
X139252381Y-77452380D01*
X139204762Y-77595238D01*
X139109524Y-77690476D01*
X139014286Y-77738095D01*
X138823810Y-77785714D01*
X138680952Y-77785714D01*
X138490476Y-77738095D01*
X138395238Y-77690476D01*
X138300000Y-77595238D01*
X138252381Y-77452380D01*
X138252381Y-77357142D01*
X138300000Y-77214285D01*
X138347619Y-77166666D01*
X138252381Y-76309523D02*
X138252381Y-76500000D01*
X138300000Y-76595238D01*
X138347619Y-76642857D01*
X138490476Y-76738095D01*
X138680952Y-76785714D01*
X139061905Y-76785714D01*
X139157143Y-76738095D01*
X139204762Y-76690476D01*
X139252381Y-76595238D01*
X139252381Y-76404761D01*
X139204762Y-76309523D01*
X139157143Y-76261904D01*
X139061905Y-76214285D01*
X138823810Y-76214285D01*
X138728571Y-76261904D01*
X138680952Y-76309523D01*
X138633333Y-76404761D01*
X138633333Y-76595238D01*
X138680952Y-76690476D01*
X138728571Y-76738095D01*
X138823810Y-76785714D01*
X139533334Y-71857143D02*
X139485715Y-71904762D01*
X139342858Y-71952381D01*
X139247620Y-71952381D01*
X139104762Y-71904762D01*
X139009524Y-71809524D01*
X138961905Y-71714286D01*
X138914286Y-71523810D01*
X138914286Y-71380952D01*
X138961905Y-71190476D01*
X139009524Y-71095238D01*
X139104762Y-71000000D01*
X139247620Y-70952381D01*
X139342858Y-70952381D01*
X139485715Y-71000000D01*
X139533334Y-71047619D01*
X139866667Y-70952381D02*
X140533334Y-70952381D01*
X140104762Y-71952381D01*
X160166667Y-90652381D02*
X160166667Y-89652381D01*
X160547620Y-89652381D01*
X160642858Y-89700000D01*
X160690477Y-89747619D01*
X160738096Y-89842857D01*
X160738096Y-89985714D01*
X160690477Y-90080952D01*
X160642858Y-90128571D01*
X160547620Y-90176190D01*
X160166667Y-90176190D01*
X161071429Y-89652381D02*
X161309524Y-90652381D01*
X161500001Y-89938095D01*
X161690477Y-90652381D01*
X161928572Y-89652381D01*
X162880953Y-90652381D02*
X162547619Y-90176190D01*
X162309524Y-90652381D02*
X162309524Y-89652381D01*
X162690477Y-89652381D01*
X162785715Y-89700000D01*
X162833334Y-89747619D01*
X162880953Y-89842857D01*
X162880953Y-89985714D01*
X162833334Y-90080952D01*
X162785715Y-90128571D01*
X162690477Y-90176190D01*
X162309524Y-90176190D01*
X159859524Y-87752381D02*
X159288095Y-87752381D01*
X159573809Y-87752381D02*
X159573809Y-86752381D01*
X159478571Y-86895238D01*
X159383333Y-86990476D01*
X159288095Y-87038095D01*
X160288095Y-87752381D02*
X160288095Y-86752381D01*
X160669048Y-86752381D01*
X160764286Y-86800000D01*
X160811905Y-86847619D01*
X160859524Y-86942857D01*
X160859524Y-87085714D01*
X160811905Y-87180952D01*
X160764286Y-87228571D01*
X160669048Y-87276190D01*
X160288095Y-87276190D01*
X161288095Y-87752381D02*
X161288095Y-86752381D01*
X161669048Y-86752381D01*
X161764286Y-86800000D01*
X161811905Y-86847619D01*
X161859524Y-86942857D01*
X161859524Y-87085714D01*
X161811905Y-87180952D01*
X161764286Y-87228571D01*
X161669048Y-87276190D01*
X161288095Y-87276190D01*
X162240476Y-87704762D02*
X162383333Y-87752381D01*
X162621429Y-87752381D01*
X162716667Y-87704762D01*
X162764286Y-87657143D01*
X162811905Y-87561905D01*
X162811905Y-87466667D01*
X162764286Y-87371429D01*
X162716667Y-87323810D01*
X162621429Y-87276190D01*
X162430952Y-87228571D01*
X162335714Y-87180952D01*
X162288095Y-87133333D01*
X162240476Y-87038095D01*
X162240476Y-86942857D01*
X162288095Y-86847619D01*
X162335714Y-86800000D01*
X162430952Y-86752381D01*
X162669048Y-86752381D01*
X162811905Y-86800000D01*
X167033334Y-77902381D02*
X166557143Y-77902381D01*
X166557143Y-76902381D01*
X167890477Y-77902381D02*
X167319048Y-77902381D01*
X167604762Y-77902381D02*
X167604762Y-76902381D01*
X167509524Y-77045238D01*
X167414286Y-77140476D01*
X167319048Y-77188095D01*
X132752381Y-85038095D02*
X131752381Y-85038095D01*
X131752381Y-84657142D01*
X131800000Y-84561904D01*
X131847619Y-84514285D01*
X131942857Y-84466666D01*
X132085714Y-84466666D01*
X132180952Y-84514285D01*
X132228571Y-84561904D01*
X132276190Y-84657142D01*
X132276190Y-85038095D01*
X132752381Y-83514285D02*
X132752381Y-84085714D01*
X132752381Y-83800000D02*
X131752381Y-83800000D01*
X131895238Y-83895238D01*
X131990476Y-83990476D01*
X132038095Y-84085714D01*
X157033334Y-94052381D02*
X156700000Y-93576190D01*
X156461905Y-94052381D02*
X156461905Y-93052381D01*
X156842858Y-93052381D01*
X156938096Y-93100000D01*
X156985715Y-93147619D01*
X157033334Y-93242857D01*
X157033334Y-93385714D01*
X156985715Y-93480952D01*
X156938096Y-93528571D01*
X156842858Y-93576190D01*
X156461905Y-93576190D01*
X157985715Y-94052381D02*
X157414286Y-94052381D01*
X157700000Y-94052381D02*
X157700000Y-93052381D01*
X157604762Y-93195238D01*
X157509524Y-93290476D01*
X157414286Y-93338095D01*
X149402381Y-71066666D02*
X148926190Y-71400000D01*
X149402381Y-71638095D02*
X148402381Y-71638095D01*
X148402381Y-71257142D01*
X148450000Y-71161904D01*
X148497619Y-71114285D01*
X148592857Y-71066666D01*
X148735714Y-71066666D01*
X148830952Y-71114285D01*
X148878571Y-71161904D01*
X148926190Y-71257142D01*
X148926190Y-71638095D01*
X148497619Y-70685714D02*
X148450000Y-70638095D01*
X148402381Y-70542857D01*
X148402381Y-70304761D01*
X148450000Y-70209523D01*
X148497619Y-70161904D01*
X148592857Y-70114285D01*
X148688095Y-70114285D01*
X148830952Y-70161904D01*
X149402381Y-70733333D01*
X149402381Y-70114285D01*
X153983334Y-85852381D02*
X153650000Y-85376190D01*
X153411905Y-85852381D02*
X153411905Y-84852381D01*
X153792858Y-84852381D01*
X153888096Y-84900000D01*
X153935715Y-84947619D01*
X153983334Y-85042857D01*
X153983334Y-85185714D01*
X153935715Y-85280952D01*
X153888096Y-85328571D01*
X153792858Y-85376190D01*
X153411905Y-85376190D01*
X154316667Y-84852381D02*
X154935715Y-84852381D01*
X154602381Y-85233333D01*
X154745239Y-85233333D01*
X154840477Y-85280952D01*
X154888096Y-85328571D01*
X154935715Y-85423810D01*
X154935715Y-85661905D01*
X154888096Y-85757143D01*
X154840477Y-85804762D01*
X154745239Y-85852381D01*
X154459524Y-85852381D01*
X154364286Y-85804762D01*
X154316667Y-85757143D01*
X139533334Y-66352381D02*
X139200000Y-65876190D01*
X138961905Y-66352381D02*
X138961905Y-65352381D01*
X139342858Y-65352381D01*
X139438096Y-65400000D01*
X139485715Y-65447619D01*
X139533334Y-65542857D01*
X139533334Y-65685714D01*
X139485715Y-65780952D01*
X139438096Y-65828571D01*
X139342858Y-65876190D01*
X138961905Y-65876190D01*
X140390477Y-65685714D02*
X140390477Y-66352381D01*
X140152381Y-65304762D02*
X139914286Y-66019048D01*
X140533334Y-66019048D01*
X142633334Y-85552381D02*
X142300000Y-85076190D01*
X142061905Y-85552381D02*
X142061905Y-84552381D01*
X142442858Y-84552381D01*
X142538096Y-84600000D01*
X142585715Y-84647619D01*
X142633334Y-84742857D01*
X142633334Y-84885714D01*
X142585715Y-84980952D01*
X142538096Y-85028571D01*
X142442858Y-85076190D01*
X142061905Y-85076190D01*
X143538096Y-84552381D02*
X143061905Y-84552381D01*
X143014286Y-85028571D01*
X143061905Y-84980952D01*
X143157143Y-84933333D01*
X143395239Y-84933333D01*
X143490477Y-84980952D01*
X143538096Y-85028571D01*
X143585715Y-85123810D01*
X143585715Y-85361905D01*
X143538096Y-85457143D01*
X143490477Y-85504762D01*
X143395239Y-85552381D01*
X143157143Y-85552381D01*
X143061905Y-85504762D01*
X143014286Y-85457143D01*
X152783334Y-67452381D02*
X152450000Y-66976190D01*
X152211905Y-67452381D02*
X152211905Y-66452381D01*
X152592858Y-66452381D01*
X152688096Y-66500000D01*
X152735715Y-66547619D01*
X152783334Y-66642857D01*
X152783334Y-66785714D01*
X152735715Y-66880952D01*
X152688096Y-66928571D01*
X152592858Y-66976190D01*
X152211905Y-66976190D01*
X153640477Y-66452381D02*
X153450000Y-66452381D01*
X153354762Y-66500000D01*
X153307143Y-66547619D01*
X153211905Y-66690476D01*
X153164286Y-66880952D01*
X153164286Y-67261905D01*
X153211905Y-67357143D01*
X153259524Y-67404762D01*
X153354762Y-67452381D01*
X153545239Y-67452381D01*
X153640477Y-67404762D01*
X153688096Y-67357143D01*
X153735715Y-67261905D01*
X153735715Y-67023810D01*
X153688096Y-66928571D01*
X153640477Y-66880952D01*
X153545239Y-66833333D01*
X153354762Y-66833333D01*
X153259524Y-66880952D01*
X153211905Y-66928571D01*
X153164286Y-67023810D01*
X152783334Y-69452381D02*
X152450000Y-68976190D01*
X152211905Y-69452381D02*
X152211905Y-68452381D01*
X152592858Y-68452381D01*
X152688096Y-68500000D01*
X152735715Y-68547619D01*
X152783334Y-68642857D01*
X152783334Y-68785714D01*
X152735715Y-68880952D01*
X152688096Y-68928571D01*
X152592858Y-68976190D01*
X152211905Y-68976190D01*
X153116667Y-68452381D02*
X153783334Y-68452381D01*
X153354762Y-69452381D01*
X147252381Y-91661905D02*
X148061905Y-91661905D01*
X148157143Y-91614286D01*
X148204762Y-91566667D01*
X148252381Y-91471429D01*
X148252381Y-91280952D01*
X148204762Y-91185714D01*
X148157143Y-91138095D01*
X148061905Y-91090476D01*
X147252381Y-91090476D01*
X148252381Y-90090476D02*
X148252381Y-90661905D01*
X148252381Y-90376191D02*
X147252381Y-90376191D01*
X147395238Y-90471429D01*
X147490476Y-90566667D01*
X147538095Y-90661905D01*
X158938095Y-77052381D02*
X158938095Y-77861905D01*
X158985714Y-77957143D01*
X159033333Y-78004762D01*
X159128571Y-78052381D01*
X159319048Y-78052381D01*
X159414286Y-78004762D01*
X159461905Y-77957143D01*
X159509524Y-77861905D01*
X159509524Y-77052381D01*
X159938095Y-77147619D02*
X159985714Y-77100000D01*
X160080952Y-77052381D01*
X160319048Y-77052381D01*
X160414286Y-77100000D01*
X160461905Y-77147619D01*
X160509524Y-77242857D01*
X160509524Y-77338095D01*
X160461905Y-77480952D01*
X159890476Y-78052381D01*
X160509524Y-78052381D01*
X145388095Y-77652381D02*
X145388095Y-78461905D01*
X145435714Y-78557143D01*
X145483333Y-78604762D01*
X145578571Y-78652381D01*
X145769048Y-78652381D01*
X145864286Y-78604762D01*
X145911905Y-78557143D01*
X145959524Y-78461905D01*
X145959524Y-77652381D01*
X146340476Y-77652381D02*
X146959524Y-77652381D01*
X146626190Y-78033333D01*
X146769048Y-78033333D01*
X146864286Y-78080952D01*
X146911905Y-78128571D01*
X146959524Y-78223810D01*
X146959524Y-78461905D01*
X146911905Y-78557143D01*
X146864286Y-78604762D01*
X146769048Y-78652381D01*
X146483333Y-78652381D01*
X146388095Y-78604762D01*
X146340476Y-78557143D01*
X135476190Y-70176191D02*
X135952381Y-70176191D01*
X134952381Y-70509524D02*
X135476190Y-70176191D01*
X134952381Y-69842857D01*
X135952381Y-68985714D02*
X135952381Y-69557143D01*
X135952381Y-69271429D02*
X134952381Y-69271429D01*
X135095238Y-69366667D01*
X135190476Y-69461905D01*
X135238095Y-69557143D01*
X142411905Y-69452381D02*
X142411905Y-68452381D01*
X142650000Y-68452381D01*
X142792858Y-68500000D01*
X142888096Y-68595238D01*
X142935715Y-68690476D01*
X142983334Y-68880952D01*
X142983334Y-69023810D01*
X142935715Y-69214286D01*
X142888096Y-69309524D01*
X142792858Y-69404762D01*
X142650000Y-69452381D01*
X142411905Y-69452381D01*
X143840477Y-68785714D02*
X143840477Y-69452381D01*
X143602381Y-68404762D02*
X143364286Y-69119048D01*
X143983334Y-69119048D01*
X161461905Y-70952381D02*
X161461905Y-69952381D01*
X161842858Y-69952381D01*
X161938096Y-70000000D01*
X161985715Y-70047619D01*
X162033334Y-70142857D01*
X162033334Y-70285714D01*
X161985715Y-70380952D01*
X161938096Y-70428571D01*
X161842858Y-70476190D01*
X161461905Y-70476190D01*
X162414286Y-70047619D02*
X162461905Y-70000000D01*
X162557143Y-69952381D01*
X162795239Y-69952381D01*
X162890477Y-70000000D01*
X162938096Y-70047619D01*
X162985715Y-70142857D01*
X162985715Y-70238095D01*
X162938096Y-70380952D01*
X162366667Y-70952381D01*
X162985715Y-70952381D01*
X165880952Y-88666667D02*
X166357143Y-88666667D01*
X165785714Y-88952381D02*
X166119047Y-87952381D01*
X166452381Y-88952381D01*
X166785714Y-88952381D02*
X166785714Y-87952381D01*
X167357143Y-88952381D01*
X167357143Y-87952381D01*
X167690476Y-87952381D02*
X168261905Y-87952381D01*
X167976190Y-88952381D02*
X167976190Y-87952381D01*
X169119048Y-88952381D02*
X168547619Y-88952381D01*
X168833333Y-88952381D02*
X168833333Y-87952381D01*
X168738095Y-88095238D01*
X168642857Y-88190476D01*
X168547619Y-88238095D01*
M02*
