M48
;DRILL file {KiCad 4.0.3-stable} date 12/05/16 18:00:44
;FORMAT={-:-/ absolute / inch / decimal}
FMAT,2
INCH,TZ
T1C0.016
T2C0.028
T3C0.030
T4C0.118
%
G90
G05
M72
T1
X5.2126Y-3.063
X5.3543Y-3.6811
X5.4961Y-2.9134
X5.5354Y-3.1378
X5.5906Y-3.4252
X5.6142Y-2.7756
X5.6417Y-3.0433
X5.6457Y-2.9803
X5.6575Y-3.1024
X5.7087Y-2.8465
X5.8425Y-3.3976
X5.8622Y-3.1378
X5.8661Y-3.0433
X5.8701Y-2.9803
X5.9055Y-3.3465
X6.2598Y-3.1102
X6.2598Y-3.189
X6.3386Y-3.1102
X6.3386Y-3.189
X6.4173Y-3.7008
X6.4567Y-2.811
X6.4567Y-3.3858
X6.4567Y-3.4646
X6.5236Y-3.2913
X6.6417Y-3.2913
T2
X6.1969Y-2.6811
X6.2756Y-2.6811
X6.3543Y-2.6811
T3
X5.3465Y-3.2008
X5.3465Y-3.2795
X5.3465Y-3.3583
X5.3465Y-3.437
T4
X5.2165Y-2.6575
X5.2165Y-3.6417
X6.5945Y-2.6575
X6.5945Y-3.6417
T0
M30
