G04 #@! TF.FileFunction,Paste,Top*
%FSLAX46Y46*%
G04 Gerber Fmt 4.6, Leading zero omitted, Abs format (unit mm)*
G04 Created by KiCad (PCBNEW 4.0.3-stable) date 12/05/16 18:01:04*
%MOMM*%
%LPD*%
G01*
G04 APERTURE LIST*
%ADD10C,0.100000*%
%ADD11R,1.140000X1.200000*%
%ADD12R,1.200000X1.140000*%
%ADD13R,1.700000X1.000000*%
%ADD14R,1.700000X3.300000*%
%ADD15R,2.000000X0.700000*%
%ADD16R,2.000000X0.800000*%
%ADD17R,1.000000X0.250000*%
%ADD18R,0.250000X1.000000*%
%ADD19R,1.200000X1.900000*%
%ADD20R,1.000000X1.100000*%
%ADD21R,1.050000X2.200000*%
G04 APERTURE END LIST*
D10*
D11*
X145000000Y-67000000D03*
X146900000Y-67000000D03*
D12*
X132000000Y-73850000D03*
X132000000Y-71950000D03*
X141500000Y-91650000D03*
X141500000Y-89750000D03*
X139500000Y-91650000D03*
X139500000Y-89750000D03*
X153100000Y-91700000D03*
X153100000Y-89800000D03*
X155100000Y-91700000D03*
X155100000Y-89800000D03*
D11*
X134700000Y-77800000D03*
X136600000Y-77800000D03*
X138700000Y-69500000D03*
X140600000Y-69500000D03*
X162550000Y-92200000D03*
X160650000Y-92200000D03*
X162100000Y-85400000D03*
X160200000Y-85400000D03*
D12*
X167200000Y-79500000D03*
X167200000Y-81400000D03*
X157100000Y-89800000D03*
X157100000Y-91700000D03*
D11*
X145000000Y-71000000D03*
X146900000Y-71000000D03*
X156250000Y-85400000D03*
X158150000Y-85400000D03*
X140600000Y-67500000D03*
X138700000Y-67500000D03*
X146900000Y-85000000D03*
X145000000Y-85000000D03*
X150900000Y-67000000D03*
X149000000Y-67000000D03*
X150850000Y-69000000D03*
X148950000Y-69000000D03*
D13*
X144100000Y-88600000D03*
X144100000Y-90900000D03*
X144100000Y-93200000D03*
D14*
X150300000Y-90900000D03*
D15*
X154850000Y-73700000D03*
D16*
X154850000Y-74800000D03*
X154850000Y-75900000D03*
X154850000Y-77000000D03*
X154850000Y-78100000D03*
X154850000Y-79200000D03*
X154850000Y-80300000D03*
X154850000Y-81400000D03*
D15*
X154850000Y-82500000D03*
X164550000Y-82500000D03*
D16*
X164550000Y-81400000D03*
X164550000Y-80300000D03*
X164550000Y-79200000D03*
X164550000Y-78100000D03*
X164550000Y-77000000D03*
X164550000Y-75900000D03*
X164550000Y-74800000D03*
D15*
X164550000Y-73700000D03*
D17*
X141900000Y-75700000D03*
X141900000Y-76200000D03*
X141900000Y-76700000D03*
X141900000Y-77200000D03*
X141900000Y-77700000D03*
X141900000Y-78200000D03*
X141900000Y-78700000D03*
X141900000Y-79200000D03*
X141900000Y-79700000D03*
X141900000Y-80200000D03*
X141900000Y-80700000D03*
X141900000Y-81200000D03*
D18*
X143400000Y-82700000D03*
X143900000Y-82700000D03*
X144400000Y-82700000D03*
X144900000Y-82700000D03*
X145400000Y-82700000D03*
X145900000Y-82700000D03*
X146400000Y-82700000D03*
X146900000Y-82700000D03*
X147400000Y-82700000D03*
X147900000Y-82700000D03*
X148400000Y-82700000D03*
X148900000Y-82700000D03*
D17*
X150400000Y-81200000D03*
X150400000Y-80700000D03*
X150400000Y-80200000D03*
X150400000Y-79700000D03*
X150400000Y-79200000D03*
X150400000Y-78700000D03*
X150400000Y-78200000D03*
X150400000Y-77700000D03*
X150400000Y-77200000D03*
X150400000Y-76700000D03*
X150400000Y-76200000D03*
X150400000Y-75700000D03*
D18*
X148900000Y-74200000D03*
X148400000Y-74200000D03*
X147900000Y-74200000D03*
X147400000Y-74200000D03*
X146900000Y-74200000D03*
X146400000Y-74200000D03*
X145900000Y-74200000D03*
X145400000Y-74200000D03*
X144900000Y-74200000D03*
X144400000Y-74200000D03*
X143900000Y-74200000D03*
X143400000Y-74200000D03*
D19*
X134400000Y-71850000D03*
X134400000Y-75550000D03*
X136600000Y-75550000D03*
X136600000Y-71850000D03*
D11*
X145000000Y-69000000D03*
X146900000Y-69000000D03*
D20*
X167200000Y-84350000D03*
D21*
X168700000Y-85900000D03*
X165700000Y-85900000D03*
M02*
